# xmcd
#
# Track frame offsets: 
#        150
#        5716
#        24615
#        41374
#        63162
#        82969
#        100832
#        118589
#        128406
#        142834
#        160837
#        171935
#
# Disc length: 2441 seconds
#
# Revision: 0
# Processed by: cddbd v1.5.2PL0 Copyright (c) Steve Scherf et al.
# Submitted via: ExactAudioCopy v1.3
#
DISCID=8b09870c
DTITLE=Cat Power - Wanderer
DYEAR=2018
DGENRE=Folk
TTITLE0=Wanderer
TTITLE1=In Your Face
TTITLE2=You Get
TTITLE3=Woman
TTITLE4=Horizon
TTITLE5=Stay
TTITLE6=Black
TTITLE7=Robbin Hood
TTITLE8=Nothing Really Matters
TTITLE9=Me Voy
TTITLE10=Wanderer-Exit
TTITLE11=What The World Needs Now
EXTD=
EXTT0=
EXTT1=
EXTT2=
EXTT3=
EXTT4=
EXTT5=
EXTT6=
EXTT7=
EXTT8=
EXTT9=
EXTT10=
EXTT11=
PLAYORDER=
